<svg version="1.1" xmlns="http://www.w3.org/2000/svg" xmlns:xlink="http://www.w3.org/1999/xlink" width="30px" height="30px" viewBox="0,0,256,256"><g fill="#000000" fill-rule="nonzero" stroke="none" stroke-width="1" stroke-linecap="butt" stroke-linejoin="miter" stroke-miterlimit="10" stroke-dasharray="" stroke-dashoffset="0" font-family="none" font-weight="none" font-size="none" text-anchor="none" style="mix-blend-mode: normal"><g transform="translate(0.09398,0.02717) scale(8.53333,8.53333)"><g id="surface1"><path d="M13.5625,0.0625c-4.67187,0.47656 -8.79297,3.03906 -11.28906,7.00781c-2.85156,4.53906 -3.02344,10.41406 -0.4375,15.10938c1.83203,3.34375 4.83594,5.84375 8.46875,7.05859c1.59375,0.53516 2.875,0.73047 4.69531,0.73047c1.70313,0 2.82422,-0.15625 4.27734,-0.59375c4.71484,-1.42578 8.43359,-5.03516 9.96094,-9.67578c0.53516,-1.61719 0.73047,-2.87891 0.73047,-4.66797c0,-1.51953 -0.09766,-2.36328 -0.4375,-3.69922c-0.28906,-1.12891 -0.54687,-1.83203 -1.08594,-2.92578c-0.71875,-1.46875 -1.53125,-2.625 -2.6875,-3.82031c-2.33594,-2.41797 -5.25781,-3.91797 -8.64844,-4.4375c-0.73437,-0.11328 -2.79687,-0.16406 -3.54687,-0.08594zM16.98438,1.14063c2.40625,0.35156 4.79688,1.38281 6.71094,2.89063c0.57813,0.45313 1.93359,1.82031 2.35938,2.38281c0.90625,1.19531 1.72656,2.70313 2.15234,3.93359c0.54297,1.59766 0.76172,2.91016 0.76172,4.65234c0,1.42188 -0.08594,2.16406 -0.40625,3.42969c-0.99219,3.94531 -3.73047,7.32031 -7.38281,9.10937c-1.39844,0.6875 -2.6875,1.08984 -4.21875,1.32422c-0.96875,0.14453 -2.9375,0.14453 -3.92188,0c-3.10937,-0.46875 -5.91406,-1.89844 -8.05859,-4.11328c-1.12109,-1.14844 -1.85547,-2.21094 -2.55078,-3.625c-0.66016,-1.35547 -1.08203,-2.70312 -1.29297,-4.16406c-0.14453,-0.96484 -0.14453,-2.95703 0,-3.92188c0.11719,-0.79687 0.41016,-1.98437 0.67969,-2.75781c0.42188,-1.21094 1.35938,-2.89062 2.21484,-3.97656c0.45313,-0.57813 1.82031,-1.93359 2.38281,-2.35938c2.05859,-1.54687 4.50781,-2.57031 6.82813,-2.82812c0.30469,-0.03125 0.64844,-0.07422 0.76172,-0.08594c0.42188,-0.05469 2.39453,0.02344 2.98047,0.10938zM16.98438,1.14063"></path><path d="M14.03125,2.02734c-1.87891,0.19922 -3.23828,0.57422 -4.74219,1.3125c-2.66406,1.30078 -4.76562,3.43359 -6.03906,6.11328c-0.84375,1.77344 -1.22266,3.50781 -1.22266,5.54688c0,2.12109 0.39453,3.83594 1.3125,5.71094c1.89844,3.88281 5.48828,6.49219 9.84375,7.16406c0.91406,0.13281 2.69922,0.13281 3.65625,-0.00781c2.71484,-0.39844 5.19141,-1.60547 7.15234,-3.50391c1.14062,-1.09766 1.96484,-2.22266 2.66797,-3.65234c0.62109,-1.26563 0.98438,-2.4375 1.21484,-3.89453c0.13281,-0.91797 0.14063,-2.70703 0,-3.63281c-0.44141,-2.87891 -1.66406,-5.31641 -3.70312,-7.35547c-2.02344,-2.02344 -4.47266,-3.26172 -7.29687,-3.6875c-0.60156,-0.08984 -2.37891,-0.16016 -2.84375,-0.11328zM16.02344,3.04688c6.97656,0.63281 11.92969,7 10.8125,13.88281c-0.82813,5.06641 -4.82813,9.0625 -9.91406,9.90625c-4.16016,0.6875 -8.37891,-0.88281 -11.10937,-4.13281c-4.60937,-5.48828 -3.39062,-13.76562 2.61719,-17.73437c2.20312,-1.46094 4.98437,-2.15625 7.59375,-1.92187zM16.02344,3.04688"></path><path d="M14.25781,4.60156c-1.32812,0.35547 -2.24609,1.54688 -2.24609,2.89844c0,1.64063 1.34766,2.98828 2.98828,2.98828c1.64844,0 2.98828,-1.33984 2.98828,-2.98828c0,-1.65625 -1.35547,-3 -3.01953,-2.98437c-0.21875,0 -0.54687,0.04297 -0.71094,0.08594zM15.83203,5.69531c0.41797,0.19531 0.77734,0.55078 0.98047,0.97656c0.125,0.27734 0.14844,0.41406 0.14844,0.82813c0,0.59766 -0.16406,1.01563 -0.55469,1.40625c-0.39062,0.39063 -0.80859,0.55469 -1.40625,0.55469c-0.41406,0 -0.55078,-0.02344 -0.82812,-0.14844c-1.64062,-0.77344 -1.48437,-3.16406 0.23438,-3.71875c0.39844,-0.125 1.02344,-0.07812 1.42578,0.10156zM15.83203,5.69531"></path><path d="M7.29688,11.15625c-0.55469,0.25 -0.85156,0.73438 -0.85156,1.35156c0,0.69922 0.46875,1.29688 1.125,1.4375c0.17188,0.03516 1.27734,0.15234 2.46875,0.25781c2.67578,0.24219 2.44141,0.10938 2.44141,1.32422c0,0.69141 -0.02344,0.91797 -0.11328,1.17578c-0.05469,0.17969 -0.64063,1.67969 -1.29297,3.33594c-1.25391,3.17969 -1.3125,3.38672 -1.17187,3.89844c0.09375,0.33203 0.44922,0.74219 0.79297,0.90625c0.54688,0.26953 1.35156,0.10547 1.75,-0.35937c0.13281,-0.16406 0.50781,-1 1.35156,-3.07031c0.64063,-1.5625 1.17969,-2.83984 1.19531,-2.83984c0.01953,0 0.5625,1.27734 1.20312,2.83984c0.71094,1.72656 1.23438,2.92188 1.33594,3.04297c0.08594,0.11328 0.29688,0.26953 0.46875,0.35156c1.04297,0.51953 2.24219,-0.30469 2.14453,-1.45703c-0.02344,-0.20312 -0.41797,-1.28125 -1.21875,-3.3125c-0.65234,-1.65625 -1.23828,-3.15625 -1.29297,-3.33594c-0.08984,-0.25781 -0.11328,-0.48437 -0.11328,-1.17578c0,-1.21484 -0.23437,-1.08984 2.44922,-1.32422c1.18359,-0.10547 2.28906,-0.22266 2.46094,-0.25781c0.64844,-0.14062 1.125,-0.74219 1.125,-1.42969c-0.00781,-0.83594 -0.64063,-1.5 -1.4375,-1.5c-0.16406,0 -1.46875,0.10547 -2.89844,0.23438c-2.27344,0.20313 -2.80469,0.23438 -4.21875,0.23438c-1.41406,0 -1.9375,-0.03125 -4.21094,-0.23437c-1.42578,-0.12891 -2.73437,-0.23437 -2.89844,-0.23437c-0.19141,0 -0.40625,0.05469 -0.59375,0.14063zM10.72656,12.25c2.57813,0.23438 2.62109,0.23438 4.65625,0.21094c1.78125,-0.02344 2.34375,-0.05078 4.27344,-0.23828c1.21875,-0.11719 2.3125,-0.21094 2.42188,-0.21094c0.5625,0 0.66406,0.83984 0.11719,0.96484c-0.07812,0.01953 -1.13281,0.11719 -2.35156,0.23047c-2.04687,0.1875 -2.23437,0.21094 -2.52344,0.35156c-0.32812,0.16406 -0.57031,0.41797 -0.71484,0.76953c-0.12109,0.29688 -0.11719,2.0625 0.01172,2.48828c0.05469,0.17578 0.64453,1.71484 1.32031,3.43359c0.67188,1.71875 1.22266,3.19922 1.22266,3.29297c0,0.25391 -0.30469,0.50391 -0.55078,0.45703c-0.10156,-0.02344 -0.22266,-0.08203 -0.27344,-0.14062c-0.05469,-0.05469 -0.62891,-1.39453 -1.28125,-2.96875c-0.64844,-1.58594 -1.22266,-2.9375 -1.28125,-3.01562c-0.28125,-0.37891 -0.95313,-0.46875 -1.35938,-0.17969c-0.23437,0.16406 -0.22266,0.14063 -1.58203,3.45703c-0.58984,1.43359 -1.10547,2.65234 -1.15234,2.70703c-0.13281,0.14844 -0.39453,0.1875 -0.59375,0.08203c-0.1875,-0.09375 -0.24609,-0.19922 -0.24609,-0.42187c0,-0.08203 0.55078,-1.54687 1.22266,-3.26172c0.67578,-1.71094 1.26563,-3.25781 1.32031,-3.4375c0.12891,-0.42969 0.13281,-2.19531 0.01172,-2.49219c-0.14062,-0.33594 -0.37109,-0.58594 -0.67969,-0.75781c-0.28516,-0.15625 -0.39453,-0.17187 -2.53516,-0.36328c-1.23438,-0.11328 -2.29688,-0.21094 -2.375,-0.23047c-0.54688,-0.125 -0.44531,-0.96484 0.125,-0.96484c0.10156,0 1.36328,0.10547 2.79687,0.23828zM10.72656,12.25"></path></g></g></g></svg>