<?xml version="1.0" encoding="UTF-8"?>
<svg xmlns="http://www.w3.org/2000/svg" xmlns:xlink="http://www.w3.org/1999/xlink" width="30px" height="30px" viewBox="0 0 30 30" version="1.1">
<g id="surface1">
<path style=" stroke:none;fill-rule:nonzero;fill:#ffff;fill-opacity:1;" d="M 13.5625 0.0625 C 8.890625 0.539062 4.769531 3.101562 2.273438 7.070312 C -0.578125 11.609375 -0.75 17.484375 1.835938 22.179688 C 3.667969 25.523438 6.671875 28.023438 10.304688 29.238281 C 11.898438 29.773438 13.179688 29.96875 15 29.96875 C 16.703125 29.96875 17.824219 29.8125 19.277344 29.375 C 23.992188 27.949219 27.710938 24.339844 29.238281 19.699219 C 29.773438 18.082031 29.96875 16.820312 29.96875 15.03125 C 29.96875 13.511719 29.871094 12.667969 29.53125 11.332031 C 29.242188 10.203125 28.984375 9.5 28.445312 8.40625 C 27.726562 6.9375 26.914062 5.78125 25.757812 4.585938 C 23.421875 2.167969 20.5 0.667969 17.109375 0.148438 C 16.375 0.0351562 14.3125 -0.015625 13.5625 0.0625 Z M 16.984375 1.140625 C 19.390625 1.492188 21.78125 2.523438 23.695312 4.03125 C 24.273438 4.484375 25.628906 5.851562 26.054688 6.414062 C 26.960938 7.609375 27.78125 9.117188 28.207031 10.347656 C 28.75 11.945312 28.96875 13.257812 28.96875 15 C 28.96875 16.421875 28.882812 17.164062 28.5625 18.429688 C 27.570312 22.375 24.832031 25.75 21.179688 27.539062 C 19.78125 28.226562 18.492188 28.628906 16.960938 28.863281 C 15.992188 29.007812 14.023438 29.007812 13.039062 28.863281 C 9.929688 28.394531 7.125 26.964844 4.980469 24.75 C 3.859375 23.601562 3.125 22.539062 2.429688 21.125 C 1.769531 19.769531 1.347656 18.421875 1.136719 16.960938 C 0.992188 15.996094 0.992188 14.003906 1.136719 13.039062 C 1.253906 12.242188 1.546875 11.054688 1.816406 10.28125 C 2.238281 9.070312 3.175781 7.390625 4.03125 6.304688 C 4.484375 5.726562 5.851562 4.371094 6.414062 3.945312 C 8.472656 2.398438 10.921875 1.375 13.242188 1.117188 C 13.546875 1.085938 13.890625 1.042969 14.003906 1.03125 C 14.425781 0.976562 16.398438 1.054688 16.984375 1.140625 Z M 16.984375 1.140625 "/>
<path style=" stroke:none;fill-rule:nonzero;fill:#ffff;fill-opacity:1;" d="M 14.03125 2.027344 C 12.152344 2.226562 10.792969 2.601562 9.289062 3.339844 C 6.625 4.640625 4.523438 6.773438 3.25 9.453125 C 2.40625 11.226562 2.027344 12.960938 2.027344 15 C 2.027344 17.121094 2.421875 18.835938 3.339844 20.710938 C 5.238281 24.59375 8.828125 27.203125 13.183594 27.875 C 14.097656 28.007812 15.882812 28.007812 16.839844 27.867188 C 19.554688 27.46875 22.03125 26.261719 23.992188 24.363281 C 25.132812 23.265625 25.957031 22.140625 26.660156 20.710938 C 27.28125 19.445312 27.644531 18.273438 27.875 16.816406 C 28.007812 15.898438 28.015625 14.109375 27.875 13.183594 C 27.433594 10.304688 26.210938 7.867188 24.171875 5.828125 C 22.148438 3.804688 19.699219 2.566406 16.875 2.140625 C 16.273438 2.050781 14.496094 1.980469 14.03125 2.027344 Z M 16.023438 3.046875 C 23 3.679688 27.953125 10.046875 26.835938 16.929688 C 26.007812 21.996094 22.007812 25.992188 16.921875 26.835938 C 12.761719 27.523438 8.542969 25.953125 5.8125 22.703125 C 1.203125 17.214844 2.421875 8.9375 8.429688 4.96875 C 10.632812 3.507812 13.414062 2.8125 16.023438 3.046875 Z M 16.023438 3.046875 "/>
<path style=" stroke:none;fill-rule:nonzero;fill:#ffff;fill-opacity:1;" d="M 14.257812 4.601562 C 12.929688 4.957031 12.011719 6.148438 12.011719 7.5 C 12.011719 9.140625 13.359375 10.488281 15 10.488281 C 16.648438 10.488281 17.988281 9.148438 17.988281 7.5 C 17.988281 5.84375 16.632812 4.5 14.96875 4.515625 C 14.75 4.515625 14.421875 4.558594 14.257812 4.601562 Z M 15.832031 5.695312 C 16.25 5.890625 16.609375 6.246094 16.8125 6.671875 C 16.9375 6.949219 16.960938 7.085938 16.960938 7.5 C 16.960938 8.097656 16.796875 8.515625 16.40625 8.90625 C 16.015625 9.296875 15.597656 9.460938 15 9.460938 C 14.585938 9.460938 14.449219 9.4375 14.171875 9.3125 C 12.53125 8.539062 12.6875 6.148438 14.40625 5.59375 C 14.804688 5.46875 15.429688 5.515625 15.832031 5.695312 Z M 15.832031 5.695312 "/>
<path style=" stroke:none;fill-rule:nonzero;fill:#ffff;fill-opacity:1;" d="M 7.296875 11.15625 C 6.742188 11.40625 6.445312 11.890625 6.445312 12.507812 C 6.445312 13.207031 6.914062 13.804688 7.570312 13.945312 C 7.742188 13.980469 8.847656 14.097656 10.039062 14.203125 C 12.714844 14.445312 12.480469 14.3125 12.480469 15.527344 C 12.480469 16.21875 12.457031 16.445312 12.367188 16.703125 C 12.3125 16.882812 11.726562 18.382812 11.074219 20.039062 C 9.820312 23.21875 9.761719 23.425781 9.902344 23.9375 C 9.996094 24.269531 10.351562 24.679688 10.695312 24.84375 C 11.242188 25.113281 12.046875 24.949219 12.445312 24.484375 C 12.578125 24.320312 12.953125 23.484375 13.796875 21.414062 C 14.4375 19.851562 14.976562 18.574219 14.992188 18.574219 C 15.011719 18.574219 15.554688 19.851562 16.195312 21.414062 C 16.90625 23.140625 17.429688 24.335938 17.53125 24.457031 C 17.617188 24.570312 17.828125 24.726562 18 24.808594 C 19.042969 25.328125 20.242188 24.503906 20.144531 23.351562 C 20.121094 23.148438 19.726562 22.070312 18.925781 20.039062 C 18.273438 18.382812 17.6875 16.882812 17.632812 16.703125 C 17.542969 16.445312 17.519531 16.21875 17.519531 15.527344 C 17.519531 14.3125 17.285156 14.4375 19.96875 14.203125 C 21.152344 14.097656 22.257812 13.980469 22.429688 13.945312 C 23.078125 13.804688 23.554688 13.203125 23.554688 12.515625 C 23.546875 11.679688 22.914062 11.015625 22.117188 11.015625 C 21.953125 11.015625 20.648438 11.121094 19.21875 11.25 C 16.945312 11.453125 16.414062 11.484375 15 11.484375 C 13.585938 11.484375 13.0625 11.453125 10.789062 11.25 C 9.363281 11.121094 8.054688 11.015625 7.890625 11.015625 C 7.699219 11.015625 7.484375 11.070312 7.296875 11.15625 Z M 10.726562 12.25 C 13.304688 12.484375 13.347656 12.484375 15.382812 12.460938 C 17.164062 12.4375 17.726562 12.410156 19.65625 12.222656 C 20.875 12.105469 21.96875 12.011719 22.078125 12.011719 C 22.640625 12.011719 22.742188 12.851562 22.195312 12.976562 C 22.117188 12.996094 21.0625 13.09375 19.84375 13.207031 C 17.796875 13.394531 17.609375 13.417969 17.320312 13.558594 C 16.992188 13.722656 16.75 13.976562 16.605469 14.328125 C 16.484375 14.625 16.488281 16.390625 16.617188 16.816406 C 16.671875 16.992188 17.261719 18.53125 17.9375 20.25 C 18.609375 21.96875 19.160156 23.449219 19.160156 23.542969 C 19.160156 23.796875 18.855469 24.046875 18.609375 24 C 18.507812 23.976562 18.386719 23.917969 18.335938 23.859375 C 18.28125 23.804688 17.707031 22.464844 17.054688 20.890625 C 16.40625 19.304688 15.832031 17.953125 15.773438 17.875 C 15.492188 17.496094 14.820312 17.40625 14.414062 17.695312 C 14.179688 17.859375 14.191406 17.835938 12.832031 21.152344 C 12.242188 22.585938 11.726562 23.804688 11.679688 23.859375 C 11.546875 24.007812 11.285156 24.046875 11.085938 23.941406 C 10.898438 23.847656 10.839844 23.742188 10.839844 23.519531 C 10.839844 23.4375 11.390625 21.972656 12.0625 20.257812 C 12.738281 18.546875 13.328125 17 13.382812 16.820312 C 13.511719 16.390625 13.515625 14.625 13.394531 14.328125 C 13.253906 13.992188 13.023438 13.742188 12.714844 13.570312 C 12.429688 13.414062 12.320312 13.398438 10.179688 13.207031 C 8.945312 13.09375 7.882812 12.996094 7.804688 12.976562 C 7.257812 12.851562 7.359375 12.011719 7.929688 12.011719 C 8.03125 12.011719 9.292969 12.117188 10.726562 12.25 Z M 10.726562 12.25 "/>
</g>
</svg>
