<?xml version="1.0" encoding="UTF-8"?>
<svg xmlns="http://www.w3.org/2000/svg" xmlns:xlink="http://www.w3.org/1999/xlink" width="50px" height="50px" viewBox="0 0 50 50" version="1.1">
<g id="surface1">
<path style="stroke:none;fill-rule:evenodd;fill:#d0d4d4;fill-opacity:1;" d="M 48.03125 42.75 L 35.53125 5.25 C 35.3125 4.601562 34.890625 4.046875 34.328125 3.660156 C 33.761719 3.277344 33.089844 3.089844 32.40625 3.125 L 17.59375 3.125 C 16.9375 3.121094 16.300781 3.328125 15.765625 3.707031 C 15.234375 4.089844 14.835938 4.628906 14.625 5.25 L 1.96875 42.75 C 1.804688 43.234375 1.761719 43.75 1.84375 44.253906 C 1.925781 44.757812 2.128906 45.234375 2.4375 45.640625 C 2.746094 46.046875 3.148438 46.375 3.613281 46.589844 C 4.074219 46.804688 4.585938 46.902344 5.09375 46.875 L 14.25 46.875 C 14.898438 46.871094 15.53125 46.664062 16.058594 46.28125 C 16.585938 45.902344 16.980469 45.367188 17.1875 44.75 L 19.09375 39.1875 L 28.46875 46.28125 C 29.015625 46.675781 29.671875 46.882812 30.34375 46.875 L 44.96875 46.875 C 45.472656 46.890625 45.976562 46.785156 46.429688 46.566406 C 46.886719 46.347656 47.28125 46.019531 47.582031 45.613281 C 47.882812 45.207031 48.078125 44.734375 48.160156 44.238281 C 48.238281 43.738281 48.195312 43.226562 48.03125 42.75 Z M 30.46875 44.8125 C 30.242188 44.8125 30.023438 44.734375 29.84375 44.59375 L 12.1875 31.5 L 11.90625 31.28125 L 21.28125 31.28125 L 21.53125 30.625 L 24.65625 22.71875 L 31.65625 43.4375 C 31.714844 43.609375 31.722656 43.796875 31.6875 43.976562 C 31.652344 44.152344 31.570312 44.320312 31.449219 44.460938 C 31.332031 44.597656 31.179688 44.703125 31.007812 44.765625 C 30.835938 44.824219 30.648438 44.84375 30.46875 44.8125 Z M 45.0625 44.8125 L 33.4375 44.8125 C 33.671875 44.144531 33.671875 43.417969 33.4375 42.75 L 20.78125 5.25 L 32.40625 5.25 C 32.628906 5.25 32.84375 5.320312 33.023438 5.449219 C 33.199219 5.578125 33.335938 5.757812 33.40625 5.96875 L 46.0625 43.46875 C 46.105469 43.625 46.113281 43.789062 46.082031 43.945312 C 46.054688 44.105469 45.988281 44.253906 45.890625 44.382812 C 45.792969 44.515625 45.671875 44.621094 45.527344 44.695312 C 45.382812 44.769531 45.222656 44.808594 45.0625 44.8125 Z M 45.0625 44.8125 "/>
</g>
</svg>
