<?xml version="1.0" encoding="UTF-8"?>
<svg xmlns="http://www.w3.org/2000/svg" xmlns:xlink="http://www.w3.org/1999/xlink" width="57px" height="50px" viewBox="0 0 57 50" version="1.1">
<g id="surface1">
<path style=" stroke:none;fill-rule:nonzero;fill:#d0d4d4;;fill-opacity:1;" d="M 26.839844 5.515625 L 26.839844 7.8125 L 17.570312 7.8125 L 17.570312 12.402344 L 12.980469 12.402344 L 12.980469 17.1875 L 9.007812 17.1875 L 8.949219 17.84375 C 8.421875 23.40625 11.058594 28.28125 15.917969 30.75 C 18.164062 31.894531 20.300781 32.402344 23.25 32.492188 C 28.9375 32.664062 34.425781 31.242188 38.554688 28.535156 C 41.980469 26.289062 44.691406 23.144531 46.476562 19.335938 C 46.800781 18.664062 47.082031 18.054688 47.121094 17.976562 C 47.171875 17.890625 47.472656 17.832031 48.109375 17.804688 C 50.332031 17.703125 51.933594 17.039062 53.085938 15.75 C 53.601562 15.164062 54.21875 14.121094 54.140625 13.9375 C 54.0625 13.742188 52.851562 13.195312 52.050781 12.988281 C 51.183594 12.765625 49.75 12.734375 48.839844 12.921875 L 48.246094 13.046875 L 48.078125 12.382812 C 47.726562 11.023438 46.839844 9.6875 45.542969 8.574219 L 44.75 7.898438 L 44.390625 8.320312 C 43.53125 9.296875 43.121094 10.566406 43.121094 12.257812 C 43.109375 13.507812 43.285156 14.277344 43.785156 15.265625 C 43.96875 15.632812 44.117188 15.957031 44.117188 15.976562 C 44.117188 16.09375 42.722656 16.640625 41.871094 16.875 C 41.082031 17.078125 40.671875 17.117188 39.023438 17.15625 L 37.089844 17.207031 L 37.070312 14.835938 L 37.039062 12.453125 L 34.726562 12.421875 L 32.402344 12.402344 L 32.402344 3.222656 L 26.839844 3.222656 Z M 31.625 5.957031 L 31.625 8.007812 L 29.652344 7.988281 L 27.671875 7.960938 L 27.640625 6.054688 C 27.632812 5.007812 27.640625 4.101562 27.660156 4.03125 C 27.699219 3.9375 28.167969 3.90625 29.671875 3.90625 L 31.625 3.90625 Z M 22.351562 10.59375 L 22.351562 12.597656 L 18.347656 12.597656 L 18.347656 8.59375 L 22.351562 8.59375 Z M 27.035156 10.59375 L 27.035156 12.597656 L 23.035156 12.597656 L 23.035156 8.59375 L 27.035156 8.59375 Z M 31.625 10.59375 L 31.625 12.597656 L 27.621094 12.597656 L 27.621094 8.59375 L 31.625 8.59375 Z M 17.765625 15.234375 L 17.765625 17.285156 L 13.761719 17.285156 L 13.761719 13.183594 L 17.765625 13.183594 Z M 22.351562 15.234375 L 22.351562 17.285156 L 20.378906 17.265625 L 18.398438 17.234375 L 18.367188 15.332031 C 18.359375 14.289062 18.367188 13.378906 18.386719 13.3125 C 18.425781 13.210938 18.894531 13.183594 20.398438 13.183594 L 22.351562 13.183594 Z M 27.015625 15.203125 L 26.988281 17.234375 L 25.015625 17.265625 L 23.035156 17.285156 L 23.035156 13.183594 L 27.035156 13.183594 Z M 31.625 15.234375 L 31.625 17.285156 L 29.652344 17.265625 L 27.671875 17.234375 L 27.640625 15.332031 C 27.632812 14.289062 27.640625 13.378906 27.660156 13.3125 C 27.699219 13.210938 28.167969 13.183594 29.671875 13.183594 L 31.625 13.183594 Z M 36.308594 15.234375 L 36.308594 17.285156 L 32.304688 17.285156 L 32.304688 13.183594 L 36.308594 13.183594 Z M 22.59375 23.867188 C 23.375 24.199219 23.445312 25.332031 22.722656 25.789062 C 22 26.242188 21.082031 25.734375 21.082031 24.875 C 21.082031 24.382812 21.289062 24.054688 21.707031 23.867188 C 22.097656 23.703125 22.183594 23.703125 22.59375 23.867188 Z M 20.261719 27.265625 C 21.121094 28.964844 22.574219 30.410156 24.441406 31.40625 L 25.035156 31.738281 L 23.667969 31.738281 C 19.414062 31.738281 16.132812 30.554688 13.253906 28.007812 C 12.882812 27.6875 12.589844 27.390625 12.589844 27.351562 C 12.589844 27.324219 13.234375 27.3125 14.027344 27.335938 C 15.695312 27.375 17.746094 27.21875 18.933594 26.960938 C 19.394531 26.867188 19.824219 26.777344 19.882812 26.765625 C 19.949219 26.765625 20.125 26.992188 20.261719 27.265625 Z M 20.261719 27.265625 "/>
<path style=" stroke:none;fill-rule:nonzero;fill:#d0d4d4;;fill-opacity:1;" d="M 21.570312 24.335938 C 21.375 24.550781 21.316406 24.929688 21.433594 25.242188 C 21.5 25.421875 21.96875 25.683594 22.203125 25.683594 C 22.457031 25.683594 22.9375 25.148438 22.9375 24.863281 C 22.9375 24.640625 22.90625 24.617188 22.652344 24.667969 C 22.429688 24.71875 22.359375 24.6875 22.300781 24.523438 C 22.273438 24.414062 22.273438 24.277344 22.300781 24.21875 C 22.429688 24.015625 21.773438 24.121094 21.570312 24.335938 Z M 21.570312 24.335938 "/>
<path style=" stroke:none;fill-rule:nonzero;fill:#d0d4d4;;fill-opacity:1;" d="M 10.582031 34.578125 C 10.414062 34.765625 10.386719 34.992188 10.347656 36.582031 L 10.296875 38.367188 L 9.808594 38.039062 C 9.097656 37.539062 8.257812 37.304688 7.210938 37.304688 C 4.273438 37.304688 2.226562 39.71875 2.636719 42.675781 C 2.761719 43.640625 3.191406 44.484375 3.921875 45.273438 C 6.070312 47.558594 10.082031 46.921875 11.488281 44.0625 L 11.859375 43.320312 L 11.886719 39.054688 C 11.917969 34.851562 11.917969 34.773438 11.710938 34.570312 C 11.4375 34.296875 10.832031 34.304688 10.582031 34.578125 Z M 8.335938 39.0625 C 8.96875 39.304688 9.730469 39.992188 10.0625 40.625 C 10.257812 40.996094 10.296875 41.210938 10.296875 41.945312 C 10.296875 42.703125 10.257812 42.890625 10.035156 43.3125 C 9.449219 44.421875 8.460938 45.039062 7.269531 45.039062 C 6.03125 45.039062 5.027344 44.414062 4.480469 43.3125 C 4.195312 42.734375 4.175781 42.625 4.214844 41.875 C 4.265625 40.8125 4.539062 40.234375 5.398438 39.460938 C 6.023438 38.898438 7.378906 38.710938 8.335938 39.0625 Z M 8.335938 39.0625 "/>
<path style=" stroke:none;fill-rule:nonzero;fill:#d0d4d4;;fill-opacity:1;" d="M 32.519531 34.601562 L 32.304688 34.824219 L 32.304688 40.507812 C 32.304688 46.0625 32.304688 46.191406 32.5 46.386719 C 32.804688 46.6875 33.410156 46.648438 33.664062 46.328125 C 33.839844 46.101562 33.867188 45.929688 33.867188 45.046875 L 33.867188 44.023438 L 35.136719 45.226562 C 36.660156 46.671875 36.785156 46.757812 37.15625 46.632812 C 37.527344 46.492188 37.792969 45.96875 37.664062 45.617188 C 37.605469 45.476562 36.816406 44.601562 35.886719 43.679688 L 34.210938 41.992188 L 35.886719 40.3125 C 36.804688 39.382812 37.605469 38.496094 37.664062 38.351562 C 37.871094 37.8125 37.324219 37.195312 36.765625 37.34375 C 36.628906 37.375 35.925781 37.96875 35.214844 38.664062 L 33.917969 39.921875 L 33.867188 37.335938 C 33.820312 34.765625 33.820312 34.746094 33.585938 34.5625 C 33.273438 34.304688 32.785156 34.316406 32.519531 34.601562 Z M 32.519531 34.601562 "/>
<path style=" stroke:none;fill-rule:nonzero;fill:#d0d4d4;;fill-opacity:1;" d="M 26.988281 37.3125 C 26.167969 37.429688 25.113281 37.976562 24.46875 38.613281 C 22.652344 40.410156 22.703125 43.535156 24.585938 45.410156 C 25.757812 46.59375 27.5625 46.960938 29.386719 46.425781 C 30.558594 46.074219 30.980469 44.960938 30.050781 44.640625 C 29.777344 44.550781 29.640625 44.570312 29.105469 44.785156 C 27.515625 45.421875 25.640625 44.695312 24.957031 43.183594 C 24.644531 42.480469 24.664062 41.425781 25.003906 40.703125 C 25.347656 39.960938 25.953125 39.328125 26.558594 39.0625 C 27.203125 38.789062 28.375 38.828125 29.210938 39.140625 C 29.71875 39.335938 29.796875 39.34375 30.109375 39.21875 C 30.714844 38.964844 30.695312 38.25 30.070312 37.832031 C 29.339844 37.351562 28.101562 37.140625 26.988281 37.3125 Z M 26.988281 37.3125 "/>
<path style=" stroke:none;fill-rule:nonzero;fill:#d0d4d4;;fill-opacity:1;" d="M 42.175781 37.363281 C 39.742188 38.015625 38.125 40.546875 38.660156 42.871094 C 38.828125 43.613281 39.441406 44.726562 39.988281 45.273438 C 40.769531 46.0625 42.242188 46.679688 43.335938 46.679688 C 44.3125 46.679688 45.746094 46.113281 45.960938 45.632812 C 46.097656 45.34375 46.019531 45.058594 45.746094 44.757812 C 45.492188 44.472656 45.347656 44.472656 44.546875 44.773438 C 44.136719 44.929688 43.695312 45.019531 43.34375 45.019531 C 42.742188 45.019531 42.339844 44.929688 42.378906 44.824219 C 42.398438 44.785156 43.304688 43.976562 44.410156 43.027344 C 47.570312 40.292969 47.433594 40.429688 47.433594 40.03125 C 47.433594 39.773438 47.328125 39.53125 47.042969 39.140625 C 45.992188 37.664062 43.890625 36.894531 42.175781 37.363281 Z M 44.417969 39.0625 C 44.878906 39.226562 45.582031 39.707031 45.582031 39.84375 C 45.582031 39.882812 44.527344 40.820312 43.238281 41.933594 L 40.894531 43.945312 L 40.660156 43.585938 C 40.300781 43.007812 40.183594 42.53125 40.230469 41.738281 C 40.328125 40.1875 41.199219 39.25 42.894531 38.828125 C 43.199219 38.757812 43.921875 38.867188 44.417969 39.0625 Z M 44.417969 39.0625 "/>
<path style=" stroke:none;fill-rule:nonzero;fill:#d0d4d4;;fill-opacity:1;" d="M 16.191406 37.441406 C 14.640625 37.871094 13.304688 39.289062 12.972656 40.828125 C 12.902344 41.125 12.882812 41.765625 12.902344 42.304688 C 12.941406 43.164062 12.992188 43.339844 13.3125 43.992188 C 13.8125 45.007812 14.484375 45.710938 15.371094 46.152344 C 17.285156 47.101562 19.5 46.710938 20.984375 45.15625 C 21.695312 44.414062 22.019531 43.75 22.175781 42.695312 C 22.320312 41.660156 22.183594 40.8125 21.714844 39.863281 C 21.113281 38.640625 20.078125 37.765625 18.886719 37.460938 C 18.203125 37.273438 16.828125 37.273438 16.191406 37.441406 Z M 18.59375 39.070312 C 19.316406 39.335938 20.117188 40.078125 20.398438 40.742188 C 20.722656 41.484375 20.710938 42.453125 20.371094 43.183594 C 19.453125 45.203125 17.070312 45.671875 15.410156 44.171875 C 14.53125 43.378906 14.210938 42.023438 14.628906 40.90625 C 14.980469 39.992188 15.773438 39.238281 16.691406 38.953125 C 17.167969 38.808594 18.035156 38.867188 18.59375 39.070312 Z M 18.59375 39.070312 "/>
<path style=" stroke:none;fill-rule:nonzero;fill:#d0d4d4;;fill-opacity:1;" d="M 52.617188 37.414062 C 51.464844 37.636719 50.011719 38.703125 49.457031 39.726562 C 48.96875 40.617188 48.898438 41.140625 48.898438 43.757812 C 48.898438 45.90625 48.917969 46.191406 49.074219 46.375 C 49.320312 46.6875 49.867188 46.75 50.167969 46.503906 L 50.410156 46.308594 L 50.460938 43.78125 C 50.507812 41.328125 50.519531 41.25 50.761719 40.722656 C 51.230469 39.726562 52.082031 39.09375 53.164062 38.964844 C 53.875 38.875 54.296875 38.632812 54.34375 38.28125 C 54.472656 37.480469 53.855469 37.167969 52.617188 37.414062 Z M 52.617188 37.414062 "/>
</g>
</svg>
